<mxfile host="Electron" agent="Mozilla/5.0 (Windows NT 10.0; Win64; x64) AppleWebKit/537.36 (KHTML, like Gecko) draw.io/24.7.5 Chrome/126.0.6478.183 Electron/31.3.0 Safari/537.36" version="24.7.5">
  <diagram name="Page-1" id="QYU6Et2HV7j9I540Y903">
    <mxGraphModel dx="1436" dy="606" grid="0" gridSize="10" guides="1" tooltips="1" connect="1" arrows="1" fold="1" page="0" pageScale="1" pageWidth="827" pageHeight="1169" background="#ffffff" math="0" shadow="0">
      <root>
        <mxCell id="0" />
        <mxCell id="1" parent="0" />
        <mxCell id="h4X1RXtZw8wDNJcRs9XN-9" style="edgeStyle=orthogonalEdgeStyle;rounded=0;orthogonalLoop=1;jettySize=auto;html=1;exitX=0.5;exitY=1;exitDx=0;exitDy=0;fillColor=#e51400;strokeColor=#B20000;" edge="1" parent="1" source="h4X1RXtZw8wDNJcRs9XN-3">
          <mxGeometry relative="1" as="geometry">
            <mxPoint x="62" y="187.00003051757812" as="targetPoint" />
          </mxGeometry>
        </mxCell>
        <mxCell id="h4X1RXtZw8wDNJcRs9XN-3" value="&lt;font style=&quot;font-size: 18px;&quot; color=&quot;#000000&quot;&gt;شروع&amp;nbsp;&lt;/font&gt;" style="ellipse;whiteSpace=wrap;html=1;aspect=fixed;fillColor=#b1ddf0;strokeColor=#10739e;align=center;" vertex="1" parent="1">
          <mxGeometry x="16" y="45" width="92" height="92" as="geometry" />
        </mxCell>
        <mxCell id="h4X1RXtZw8wDNJcRs9XN-11" style="edgeStyle=orthogonalEdgeStyle;rounded=0;orthogonalLoop=1;jettySize=auto;html=1;exitX=0.5;exitY=1;exitDx=0;exitDy=0;fillColor=#e51400;strokeColor=#B20000;" edge="1" parent="1" source="h4X1RXtZw8wDNJcRs9XN-10">
          <mxGeometry relative="1" as="geometry">
            <mxPoint x="62" y="323" as="targetPoint" />
          </mxGeometry>
        </mxCell>
        <mxCell id="h4X1RXtZw8wDNJcRs9XN-10" value="&lt;font style=&quot;font-size: 14px;&quot; color=&quot;#000000&quot;&gt;روغن و رب میریزیم داخل قابلمه&lt;/font&gt;" style="shape=parallelogram;perimeter=parallelogramPerimeter;whiteSpace=wrap;html=1;fixedSize=1;fillColor=#cce5ff;strokeColor=#36393d;" vertex="1" parent="1">
          <mxGeometry x="2" y="189" width="120" height="60" as="geometry" />
        </mxCell>
        <mxCell id="h4X1RXtZw8wDNJcRs9XN-15" style="edgeStyle=orthogonalEdgeStyle;rounded=0;orthogonalLoop=1;jettySize=auto;html=1;exitX=1;exitY=0.5;exitDx=0;exitDy=0;fillColor=#e51400;strokeColor=#B20000;" edge="1" parent="1" source="h4X1RXtZw8wDNJcRs9XN-12" target="h4X1RXtZw8wDNJcRs9XN-16">
          <mxGeometry relative="1" as="geometry">
            <mxPoint x="208.79998779296875" y="355" as="targetPoint" />
          </mxGeometry>
        </mxCell>
        <mxCell id="h4X1RXtZw8wDNJcRs9XN-12" value="&lt;font style=&quot;font-size: 17px;&quot; color=&quot;#000000&quot;&gt;صبر میکنیم تا به بافت توپی توپی برسه&lt;/font&gt;" style="rounded=1;whiteSpace=wrap;html=1;fillColor=#cce5ff;strokeColor=#36393d;" vertex="1" parent="1">
          <mxGeometry x="2" y="325" width="120" height="60" as="geometry" />
        </mxCell>
        <mxCell id="h4X1RXtZw8wDNJcRs9XN-14" style="edgeStyle=orthogonalEdgeStyle;rounded=0;orthogonalLoop=1;jettySize=auto;html=1;exitX=0;exitY=0.5;exitDx=0;exitDy=0;" edge="1" parent="1" source="h4X1RXtZw8wDNJcRs9XN-12" target="h4X1RXtZw8wDNJcRs9XN-12">
          <mxGeometry relative="1" as="geometry" />
        </mxCell>
        <mxCell id="h4X1RXtZw8wDNJcRs9XN-17" style="edgeStyle=orthogonalEdgeStyle;rounded=0;orthogonalLoop=1;jettySize=auto;html=1;exitX=0.5;exitY=0;exitDx=0;exitDy=0;fillColor=#e51400;strokeColor=#B20000;" edge="1" parent="1" source="h4X1RXtZw8wDNJcRs9XN-16">
          <mxGeometry relative="1" as="geometry">
            <mxPoint x="245" y="267.79998779296875" as="targetPoint" />
          </mxGeometry>
        </mxCell>
        <mxCell id="h4X1RXtZw8wDNJcRs9XN-16" value="&lt;font style=&quot;font-size: 15px;&quot; color=&quot;#000000&quot;&gt;بعد به مقداری که میخوایم تخم مرغ میریزیم&lt;/font&gt;" style="ellipse;whiteSpace=wrap;html=1;aspect=fixed;fillColor=#b1ddf0;strokeColor=#10739e;" vertex="1" parent="1">
          <mxGeometry x="204.99998779296874" y="315" width="80" height="80" as="geometry" />
        </mxCell>
        <mxCell id="h4X1RXtZw8wDNJcRs9XN-21" style="edgeStyle=orthogonalEdgeStyle;rounded=0;orthogonalLoop=1;jettySize=auto;html=1;exitX=1;exitY=0.5;exitDx=0;exitDy=0;fillColor=#e51400;strokeColor=#B20000;" edge="1" parent="1" source="h4X1RXtZw8wDNJcRs9XN-20">
          <mxGeometry relative="1" as="geometry">
            <mxPoint x="360" y="224" as="targetPoint" />
          </mxGeometry>
        </mxCell>
        <mxCell id="h4X1RXtZw8wDNJcRs9XN-20" value="&lt;font style=&quot;font-size: 16px;&quot; color=&quot;#000000&quot;&gt;هم میزنیم&lt;/font&gt;" style="rhombus;whiteSpace=wrap;html=1;fillColor=#dae8fc;strokeColor=#6c8ebf;" vertex="1" parent="1">
          <mxGeometry x="205" y="184" width="80" height="80" as="geometry" />
        </mxCell>
        <mxCell id="h4X1RXtZw8wDNJcRs9XN-23" style="edgeStyle=orthogonalEdgeStyle;rounded=0;orthogonalLoop=1;jettySize=auto;html=1;exitX=0.5;exitY=1;exitDx=0;exitDy=0;fillColor=#e51400;strokeColor=#B20000;" edge="1" parent="1" source="h4X1RXtZw8wDNJcRs9XN-22" target="h4X1RXtZw8wDNJcRs9XN-24">
          <mxGeometry relative="1" as="geometry">
            <mxPoint x="428" y="320.5999755859375" as="targetPoint" />
          </mxGeometry>
        </mxCell>
        <mxCell id="h4X1RXtZw8wDNJcRs9XN-22" value="&lt;font style=&quot;font-size: 14px;&quot; color=&quot;#000000&quot;&gt;میزاریم رو گاز تا از حالت مایع به جامد برسه&lt;/font&gt;" style="rounded=0;whiteSpace=wrap;html=1;fillColor=#b1ddf0;strokeColor=#10739e;" vertex="1" parent="1">
          <mxGeometry x="368" y="194" width="120" height="60" as="geometry" />
        </mxCell>
        <mxCell id="h4X1RXtZw8wDNJcRs9XN-24" value="&lt;font style=&quot;font-size: 16px;&quot; color=&quot;#000000&quot;&gt;تموم&lt;/font&gt;&lt;div&gt;&lt;font style=&quot;font-size: 15px;&quot; color=&quot;#000000&quot;&gt;صبحونه پر از پروتئین و سالم&lt;/font&gt;&lt;/div&gt;" style="rounded=1;whiteSpace=wrap;html=1;fillColor=#b1ddf0;strokeColor=#10739e;" vertex="1" parent="1">
          <mxGeometry x="454" y="330.9999755859375" width="120" height="60" as="geometry" />
        </mxCell>
      </root>
    </mxGraphModel>
  </diagram>
</mxfile>
